<?xml version="1.0" encoding="UTF-8" standalone="no"?>
<svg
   version="1.0"
   width="89.032227pt"
   height="73.252251pt"
   viewBox="0 0 89.032227 73.252252"
   preserveAspectRatio="xMidYMid"
   id="svg64"
   sodipodi:docname="t646v.svg"
   inkscape:version="1.2.2 (b0a8486541, 2022-12-01)"
   xmlns:inkscape="http://www.inkscape.org/namespaces/inkscape"
   xmlns:sodipodi="http://sodipodi.sourceforge.net/DTD/sodipodi-0.dtd"
   xmlns="http://www.w3.org/2000/svg"
   xmlns:svg="http://www.w3.org/2000/svg">
  <defs
     id="defs68" />
  <sodipodi:namedview
     id="namedview66"
     pagecolor="#ffffff"
     bordercolor="#666666"
     borderopacity="1.0"
     inkscape:showpageshadow="2"
     inkscape:pageopacity="0.0"
     inkscape:pagecheckerboard="0"
     inkscape:deskcolor="#d1d1d1"
     inkscape:document-units="pt"
     showgrid="false"
     inkscape:zoom="9.3226447"
     inkscape:cx="91.819439"
     inkscape:cy="62.214106"
     inkscape:window-width="2560"
     inkscape:window-height="1371"
     inkscape:window-x="0"
     inkscape:window-y="0"
     inkscape:window-maximized="1"
     inkscape:current-layer="svg64" />
  <metadata
     id="metadata52">
Created by potrace 1.10, written by Peter Selinger 2001-2011
</metadata>
  <g
     transform="matrix(0.1,0,0,-0.1,13.652868,56.812122)"
     fill="#000000"
     stroke="none"
     id="g62">
    <path
       d="M 156,556 C 47,532 7,451 8,255 8,139 17,100 53,62 100,11 124,6 286,6 c 139,0 154,2 200,25 68,34 92,80 106,206 18,175 -2,257 -70,292 -74,38 -254,51 -366,27 z M 447,537 C 551,515 580,472 580,338 580,234 566,148 542,102 512,43 468,27 319,22 85,14 34,46 23,209 c -6,92 10,209 37,261 32,63 73,78 225,79 55,0 128,-5 162,-12 z"
       id="path54" />
    <path
       d="M 184,480 C 132,464 109,429 97,348 77,209 106,113 177,83 230,61 390,68 445,95 c 52,26 65,65 67,204 2,119 -6,142 -55,168 -37,19 -223,28 -273,13 z M 449,455 C 498,430 503,409 497,277 491,136 479,112 409,93 339,75 221,77 180,98 c -56,28 -72,67 -73,180 0,139 19,173 108,196 40,10 204,-3 234,-19 z"
       id="path56" />
    <path
       d="m 220,451 c -20,-4 -42,-11 -49,-15 -28,-17 -41,-75 -41,-176 0,-100 1,-102 30,-132 l 30,-30 108,4 c 88,2 112,7 134,23 37,27 40,36 45,147 7,120 1,143 -39,164 -35,18 -163,27 -218,15 z m 95,-31 c 9,-45 55,-44 55,1 0,22 6,23 49,8 50,-18 72,-79 29,-79 -59,-1 -64,-49 -6,-51 l 33,-1 -33,-8 c -18,-4 -36,-10 -39,-13 -12,-13 8,-37 32,-37 19,0 25,-5 25,-22 0,-42 -11,-64 -40,-81 -37,-22 -47,-21 -53,3 -8,30 -45,26 -58,-8 -11,-26 -11,-26 -19,-6 -13,33 -38,37 -55,10 -26,-39 -75,-13 -90,46 -5,21 -3,27 14,33 26,8 29,45 4,45 -14,0 -12,3 6,13 35,18 37,35 4,49 -15,7 -29,13 -30,13 -10,5 22,78 40,90 22,15 62,21 54,8 -9,-16 13,-53 32,-53 20,0 31,18 31,52 0,26 9,19 15,-12 z m 41,3 c -3,-8 -6,-17 -6,-19 0,-2 -4,-4 -9,-4 -10,0 -21,36 -14,44 10,10 34,-7 29,-21 z m -74,-8 c -5,-30 -26,-28 -30,3 -3,16 2,22 16,22 15,0 18,-5 14,-25 z m 188,-90 c 0,-17 -45,-21 -55,-6 -4,8 4,12 48,20 4,0 7,-6 7,-14 z M 169,311 c 16,-10 6,-31 -15,-31 -8,0 -14,9 -14,20 0,22 7,25 29,11 z m 301,-46 c 0,-9 -9,-15 -24,-15 -30,0 -43,17 -19,23 34,9 43,7 43,-8 z M 170,240 c 0,-5 -7,-10 -15,-10 -8,0 -15,5 -15,10 0,6 7,10 15,10 8,0 15,-4 15,-10 z M 358,127 c 2,-12 -3,-17 -17,-17 -12,0 -21,6 -21,13 0,31 32,34 38,4 z m -80,-4 c 2,-8 -5,-13 -17,-13 -12,0 -21,6 -21,16 0,18 31,15 38,-3 z"
       id="path58" />
    <path
       d="m 281,287 c -16,-16 -14,-34 5,-41 21,-8 45,11 38,29 -8,19 -30,25 -43,12 z"
       id="path60" />
  </g>
  <text
     xml:space="preserve"
     style="font-style:normal;font-variant:normal;font-weight:normal;font-stretch:normal;font-size:13px;line-height:1.25;font-family:RotisSerif;-inkscape-font-specification:RotisSerif;fill:#000000;fill-opacity:1;stroke:none;stroke-width:0.75"
     x="-0.20947266"
     y="70.510063"
     id="text282"><tspan
       sodipodi:role="line"
       id="tspan280"
       style="font-style:normal;font-variant:normal;font-weight:normal;font-stretch:normal;font-size:13px;font-family:RotisSerif;-inkscape-font-specification:RotisSerif;stroke-width:0.75"
       x="-0.20947266"
       y="70.510063">FLORES+ Mayas</tspan></text>
</svg>
